<mxfile host="Electron" modified="2023-04-30T14:59:02.094Z" agent="Mozilla/5.0 (Windows NT 10.0; Win64; x64) AppleWebKit/537.36 (KHTML, like Gecko) draw.io/21.2.1 Chrome/112.0.5615.87 Electron/24.1.2 Safari/537.36" etag="QlAvQnZKD0GYmZRpH0mn" version="21.2.1" type="device">
  <diagram name="Page-1" id="soSLIvL3w8zBOmjOyrvq">
    <mxGraphModel dx="3263" dy="1747" grid="0" gridSize="10" guides="1" tooltips="1" connect="1" arrows="1" fold="1" page="0" pageScale="1" pageWidth="850" pageHeight="1100" math="0" shadow="0">
      <root>
        <mxCell id="0" />
        <mxCell id="1" parent="0" />
        <mxCell id="7Q6QF7ipipTU6xI_cD2L-32" value="APP_resetToDefault" style="text;whiteSpace=wrap;html=1;fontSize=16;" parent="1" vertex="1">
          <mxGeometry x="-1717" y="-1047" width="172" height="41" as="geometry" />
        </mxCell>
        <mxCell id="7Q6QF7ipipTU6xI_cD2L-33" style="edgeStyle=none;curved=1;rounded=0;orthogonalLoop=1;jettySize=auto;html=1;exitX=1;exitY=1;exitDx=0;exitDy=0;fontSize=12;startSize=8;endSize=8;" parent="1" source="7Q6QF7ipipTU6xI_cD2L-32" target="7Q6QF7ipipTU6xI_cD2L-32" edge="1">
          <mxGeometry relative="1" as="geometry" />
        </mxCell>
        <UserObject label="&lt;div style=&quot;font-size: 1px&quot;&gt;&lt;font style=&quot;font-size: 11.29px; direction: ltr; letter-spacing: 0px; line-height: 120%; opacity: 1;&quot;&gt;Return&lt;br&gt;&lt;/font&gt;&lt;/div&gt;" Function="EN_DIO_Error_T DIO_init(uint8_t pinNumber, EN_DIO_PORT_T portNumber, EN_DIO_DIRECTION_T direction);" tags="Flowchart" id="7Q6QF7ipipTU6xI_cD2L-34">
          <mxCell style="verticalAlign=middle;align=center;overflow=width;vsdxID=52;fillColor=#d5e8d4;shape=stencil(tVLREoIgEPwaHnEQxsl3s/9gEpSJwDko7e+DsEkze2l627vdu5uFRaxyHe8FosR5sCcxqMZ3iO0Rpcp0ApQPCLEasUpaEC3Yi2lS3fOojOhsr3HDmObyMtsVcYqS29Qh5FEfklwrM5OXeUa/yjkcAwfr7TDpiyTfXvjkMR+Vw2A998qaBac5tAKHU1hq3i4oNwjRr9ofvayt/+Rk+yX/4iWA159KpXWKxJx/z0Bopfyw+g4=);strokeColor=#82b366;spacingTop=-1;spacingBottom=-1;spacingLeft=-1;spacingRight=-1;points=[[0.5,1,0],[0.5,0,0],[0,0.5,0],[1,0.5,0]];labelBackgroundColor=none;rounded=1;html=1;whiteSpace=wrap;fontFamily=Calibri;" parent="1" vertex="1">
            <mxGeometry x="-1685.8000001907349" y="-477" width="101" height="38" as="geometry" />
          </mxCell>
        </UserObject>
        <UserObject label="" Function="EN_DIO_Error_T DIO_init(uint8_t pinNumber, EN_DIO_PORT_T portNumber, EN_DIO_DIRECTION_T direction);" tags="Flowchart" id="7Q6QF7ipipTU6xI_cD2L-35">
          <mxCell style="vsdxID=280;fillColor=#e1d5e7;shape=stencil(UzV2Ls5ILEhVNTIoLinKz04tz0wpyVA1dlE1MsrMy0gtyiwBslSNXVWNndPyi1LTi/JL81Ig/IJEkEoQKze/DGRCBUSfrqGJnoEZSJuRQSVEyNDAAMx3g6jPycxDUm9hqmdpQrxyQ0zj8akmRTFhlwMZCG+nZebkQEINWR49mIBCkCA2dgUA);strokeColor=#9673a6;spacingTop=-1;spacingBottom=-1;spacingLeft=-1;spacingRight=-1;points=[[0,0.5,0],[1,0.5,0],[0.5,1,0],[0.5,0,0]];labelBackgroundColor=none;rounded=1;html=1;whiteSpace=wrap;fontFamily=Calibri;" parent="1" vertex="1">
            <mxGeometry x="-1709.8000001907349" y="-741" width="149" height="46" as="geometry" />
          </mxCell>
        </UserObject>
        <mxCell id="7Q6QF7ipipTU6xI_cD2L-36" value="&lt;div style=&quot;font-size: 1px&quot;&gt;&lt;font style=&quot;font-size: 11.29px; direction: ltr; letter-spacing: 0px; line-height: 120%; opacity: 1;&quot;&gt;Display new &lt;i&gt;DesiredTemperature &lt;/i&gt;on &lt;i&gt;LCD&lt;/i&gt;&lt;/font&gt;&lt;/div&gt;" style="text;vsdxID=280;fillColor=none;gradientColor=none;strokeColor=none;spacingTop=-1;spacingBottom=-1;spacingLeft=-1;spacingRight=-1;points=[[0,0.5,0],[1,0.5,0],[0.5,1,0],[0.5,0,0]];labelBackgroundColor=none;rounded=1;html=1;whiteSpace=wrap;verticalAlign=middle;align=center;overflow=width;;html=1;fontColor=#000000;fontFamily=Calibri;" parent="7Q6QF7ipipTU6xI_cD2L-35" vertex="1">
          <mxGeometry x="24.975940594059406" y="-0.12105263157894736" width="99.91851485148516" height="46.12105263157894" as="geometry" />
        </mxCell>
        <mxCell id="7Q6QF7ipipTU6xI_cD2L-39" style="edgeStyle=none;curved=1;rounded=0;orthogonalLoop=1;jettySize=auto;html=1;fontSize=12;startSize=8;endSize=8;" parent="1" source="7Q6QF7ipipTU6xI_cD2L-40" target="7Q6QF7ipipTU6xI_cD2L-42" edge="1">
          <mxGeometry relative="1" as="geometry" />
        </mxCell>
        <UserObject label="&lt;div style=&quot;font-size: 1px&quot;&gt;&lt;font style=&quot;font-size: 11.29px; direction: ltr; letter-spacing: 0px; line-height: 120%; opacity: 1;&quot;&gt;Start&lt;br&gt;&lt;/font&gt;&lt;/div&gt;" Function="EN_DIO_Error_T DIO_init(uint8_t pinNumber, EN_DIO_PORT_T portNumber, EN_DIO_DIRECTION_T direction);" tags="Flowchart" id="7Q6QF7ipipTU6xI_cD2L-40">
          <mxCell style="verticalAlign=middle;align=center;overflow=width;vsdxID=30;fillColor=#dae8fc;shape=stencil(tVLREoIgEPwaHnEQxsl3s/9gEpSJwDko7e+DsEkze2l627vdu5uFRaxyHe8FosR5sCcxqMZ3iO0Rpcp0ApQPCLEasUpaEC3Yi2lS3fOojOhsr3HDmObyMtsVcYqS29Qh5FEfklwrM5OXeUa/yjkcAwfr7TDpiyTfXvjkMR+Vw2A998qaBac5tAKHU1hq3i4oNwjRr9ofvayt/+Rk+yX/4iWA159KpXWKxJx/z0Bopfyw+g4=);strokeColor=#6c8ebf;spacingTop=-1;spacingBottom=-1;spacingLeft=-1;spacingRight=-1;points=[[0.5,1,0],[0.5,0,0],[0,0.5,0],[1,0.5,0]];labelBackgroundColor=none;rounded=1;html=1;whiteSpace=wrap;fontFamily=Calibri;" parent="1" vertex="1">
            <mxGeometry x="-1685.8000001907349" y="-987" width="101" height="38" as="geometry" />
          </mxCell>
        </UserObject>
        <mxCell id="7Q6QF7ipipTU6xI_cD2L-41" style="edgeStyle=none;curved=1;rounded=0;orthogonalLoop=1;jettySize=auto;html=1;fontSize=12;startSize=8;endSize=8;" parent="1" source="7Q6QF7ipipTU6xI_cD2L-42" target="7Q6QF7ipipTU6xI_cD2L-44" edge="1">
          <mxGeometry relative="1" as="geometry" />
        </mxCell>
        <UserObject label="&lt;div style=&quot;font-size: 1px&quot;&gt;&lt;font style=&quot;font-size: 11.29px; direction: ltr; letter-spacing: 0px; line-height: 120%; opacity: 1;&quot;&gt;Update&lt;/font&gt;&lt;/div&gt;&lt;div style=&quot;font-size: 1px&quot;&gt;&lt;font style=&quot;font-size: 11.29px; direction: ltr; letter-spacing: 0px; line-height: 120%; opacity: 1;&quot;&gt;&lt;i&gt;DesiredTemperature&lt;/i&gt; = 20&lt;br&gt;&lt;/font&gt;&lt;/div&gt;" Function="EN_DIO_Error_T DIO_toggle(uint8_t pinNumber, EN_DIO_PORT_T portNumber);  " tags="Flowchart" id="7Q6QF7ipipTU6xI_cD2L-42">
          <mxCell style="verticalAlign=middle;align=center;overflow=width;vsdxID=274;fillColor=#d5e8d4;shape=stencil(nZBLDoAgDERP0z3SIyjew0SURgSD+Lu9kMZoXLhwN9O+tukAlrNpJg1SzDH4QW/URgNYgZTkjA4UkwJUgGXng+6DX1zLfmoymdXo17xh5zmRJ6Q42BWCfc2oJfdAr+Yv+AP9Cb7OJ3H/2JG1HNGz/84klThPVCc=);strokeColor=#82b366;spacingTop=-1;spacingBottom=-1;spacingLeft=-1;spacingRight=-1;points=[[0,0.5,0],[1,0.5,0],[0.5,1,0],[0.5,0,0]];labelBackgroundColor=none;rounded=1;html=1;whiteSpace=wrap;fontFamily=Calibri;" parent="1" vertex="1">
            <mxGeometry x="-1702.3000001907349" y="-907" width="134" height="43" as="geometry" />
          </mxCell>
        </UserObject>
        <mxCell id="7Q6QF7ipipTU6xI_cD2L-43" style="edgeStyle=none;curved=1;rounded=0;orthogonalLoop=1;jettySize=auto;html=1;fontSize=12;startSize=8;endSize=8;" parent="1" source="7Q6QF7ipipTU6xI_cD2L-44" target="7Q6QF7ipipTU6xI_cD2L-36" edge="1">
          <mxGeometry relative="1" as="geometry" />
        </mxCell>
        <UserObject label="&lt;div style=&quot;font-size: 1px&quot;&gt;&lt;font style=&quot;font-size: 11.29px; direction: ltr; letter-spacing: 0px; line-height: 120%; opacity: 1;&quot;&gt;Clear &lt;i&gt;LCD&lt;/i&gt;&lt;br&gt;&lt;/font&gt;&lt;/div&gt;" Function="EN_DIO_Error_T DIO_toggle(uint8_t pinNumber, EN_DIO_PORT_T portNumber);  " tags="Flowchart" id="7Q6QF7ipipTU6xI_cD2L-44">
          <mxCell style="verticalAlign=middle;align=center;overflow=width;vsdxID=274;fillColor=#d5e8d4;shape=stencil(nZBLDoAgDERP0z3SIyjew0SURgSD+Lu9kMZoXLhwN9O+tukAlrNpJg1SzDH4QW/URgNYgZTkjA4UkwJUgGXng+6DX1zLfmoymdXo17xh5zmRJ6Q42BWCfc2oJfdAr+Yv+AP9Cb7OJ3H/2JG1HNGz/84klThPVCc=);strokeColor=#82b366;spacingTop=-1;spacingBottom=-1;spacingLeft=-1;spacingRight=-1;points=[[0,0.5,0],[1,0.5,0],[0.5,1,0],[0.5,0,0]];labelBackgroundColor=none;rounded=1;html=1;whiteSpace=wrap;fontFamily=Calibri;" parent="1" vertex="1">
            <mxGeometry x="-1702.3000001907349" y="-823" width="134" height="33" as="geometry" />
          </mxCell>
        </UserObject>
        <mxCell id="7Q6QF7ipipTU6xI_cD2L-45" style="edgeStyle=none;curved=1;rounded=0;orthogonalLoop=1;jettySize=auto;html=1;fontSize=12;startSize=8;endSize=8;" parent="1" source="7Q6QF7ipipTU6xI_cD2L-46" target="7Q6QF7ipipTU6xI_cD2L-48" edge="1">
          <mxGeometry relative="1" as="geometry" />
        </mxCell>
        <UserObject label="&lt;div style=&quot;font-size: 1px&quot;&gt;&lt;font style=&quot;font-size: 11.29px; direction: ltr; letter-spacing: 0px; line-height: 120%; opacity: 1;&quot;&gt;Delay 1 sec.&lt;/font&gt;&lt;/div&gt;" Function="EN_DIO_Error_T DIO_toggle(uint8_t pinNumber, EN_DIO_PORT_T portNumber);  " tags="Flowchart" id="7Q6QF7ipipTU6xI_cD2L-46">
          <mxCell style="verticalAlign=middle;align=center;overflow=width;vsdxID=274;fillColor=#d5e8d4;shape=stencil(nZBLDoAgDERP0z3SIyjew0SURgSD+Lu9kMZoXLhwN9O+tukAlrNpJg1SzDH4QW/URgNYgZTkjA4UkwJUgGXng+6DX1zLfmoymdXo17xh5zmRJ6Q42BWCfc2oJfdAr+Yv+AP9Cb7OJ3H/2JG1HNGz/84klThPVCc=);strokeColor=#82b366;spacingTop=-1;spacingBottom=-1;spacingLeft=-1;spacingRight=-1;points=[[0,0.5,0],[1,0.5,0],[0.5,1,0],[0.5,0,0]];labelBackgroundColor=none;rounded=1;html=1;whiteSpace=wrap;fontFamily=Calibri;" parent="1" vertex="1">
            <mxGeometry x="-1702.3000001907349" y="-646" width="134" height="33" as="geometry" />
          </mxCell>
        </UserObject>
        <mxCell id="7Q6QF7ipipTU6xI_cD2L-47" style="edgeStyle=none;curved=1;rounded=0;orthogonalLoop=1;jettySize=auto;html=1;fontSize=12;startSize=8;endSize=8;" parent="1" source="7Q6QF7ipipTU6xI_cD2L-48" target="7Q6QF7ipipTU6xI_cD2L-34" edge="1">
          <mxGeometry relative="1" as="geometry" />
        </mxCell>
        <UserObject label="&lt;div style=&quot;font-size: 1px&quot;&gt;&lt;font style=&quot;font-size: 11.29px; direction: ltr; letter-spacing: 0px; line-height: 120%; opacity: 1;&quot;&gt;&lt;i&gt;CurrentAppState &lt;/i&gt;= STATE_RUNNING&lt;/font&gt;&lt;/div&gt;" Function="EN_DIO_Error_T DIO_toggle(uint8_t pinNumber, EN_DIO_PORT_T portNumber);  " tags="Flowchart" id="7Q6QF7ipipTU6xI_cD2L-48">
          <mxCell style="verticalAlign=middle;align=center;overflow=width;vsdxID=274;fillColor=#d5e8d4;shape=stencil(nZBLDoAgDERP0z3SIyjew0SURgSD+Lu9kMZoXLhwN9O+tukAlrNpJg1SzDH4QW/URgNYgZTkjA4UkwJUgGXng+6DX1zLfmoymdXo17xh5zmRJ6Q42BWCfc2oJfdAr+Yv+AP9Cb7OJ3H/2JG1HNGz/84klThPVCc=);strokeColor=#82b366;spacingTop=-1;spacingBottom=-1;spacingLeft=-1;spacingRight=-1;points=[[0,0.5,0],[1,0.5,0],[0.5,1,0],[0.5,0,0]];labelBackgroundColor=none;rounded=1;html=1;whiteSpace=wrap;fontFamily=Calibri;" parent="1" vertex="1">
            <mxGeometry x="-1702.3000001907349" y="-564" width="134" height="38" as="geometry" />
          </mxCell>
        </UserObject>
        <mxCell id="7Q6QF7ipipTU6xI_cD2L-49" style="edgeStyle=none;curved=1;rounded=0;orthogonalLoop=1;jettySize=auto;html=1;fontSize=12;startSize=8;endSize=8;" parent="1" source="7Q6QF7ipipTU6xI_cD2L-36" target="7Q6QF7ipipTU6xI_cD2L-46" edge="1">
          <mxGeometry relative="1" as="geometry" />
        </mxCell>
        <mxCell id="vik85Cttm_trtf5mC2Qc-1" value="APP_switchState" style="text;html=1;align=center;verticalAlign=middle;resizable=0;points=[];autosize=1;strokeColor=none;fillColor=none;fontSize=16;" vertex="1" parent="1">
          <mxGeometry x="-2245" y="-1047" width="141" height="31" as="geometry" />
        </mxCell>
        <mxCell id="vik85Cttm_trtf5mC2Qc-47" style="edgeStyle=none;curved=1;rounded=0;orthogonalLoop=1;jettySize=auto;html=1;fontSize=12;startSize=8;endSize=8;" edge="1" parent="1" source="vik85Cttm_trtf5mC2Qc-2" target="vik85Cttm_trtf5mC2Qc-3">
          <mxGeometry relative="1" as="geometry" />
        </mxCell>
        <UserObject label="&lt;div style=&quot;font-size: 1px&quot;&gt;&lt;font style=&quot;font-size: 11.29px; direction: ltr; letter-spacing: 0px; line-height: 120%; opacity: 1;&quot;&gt;Start&lt;br&gt;&lt;/font&gt;&lt;/div&gt;" Function="EN_DIO_Error_T DIO_init(uint8_t pinNumber, EN_DIO_PORT_T portNumber, EN_DIO_DIRECTION_T direction);" tags="Flowchart" id="vik85Cttm_trtf5mC2Qc-2">
          <mxCell style="verticalAlign=middle;align=center;overflow=width;vsdxID=30;fillColor=#dae8fc;shape=stencil(tVLREoIgEPwaHnEQxsl3s/9gEpSJwDko7e+DsEkze2l627vdu5uFRaxyHe8FosR5sCcxqMZ3iO0Rpcp0ApQPCLEasUpaEC3Yi2lS3fOojOhsr3HDmObyMtsVcYqS29Qh5FEfklwrM5OXeUa/yjkcAwfr7TDpiyTfXvjkMR+Vw2A998qaBac5tAKHU1hq3i4oNwjRr9ofvayt/+Rk+yX/4iWA159KpXWKxJx/z0Bopfyw+g4=);strokeColor=#6c8ebf;spacingTop=-1;spacingBottom=-1;spacingLeft=-1;spacingRight=-1;points=[[0.5,1,0],[0.5,0,0],[0,0.5,0],[1,0.5,0]];labelBackgroundColor=none;rounded=1;html=1;whiteSpace=wrap;fontFamily=Calibri;" vertex="1" parent="1">
            <mxGeometry x="-2225.0000001907347" y="-987" width="101" height="38" as="geometry" />
          </mxCell>
        </UserObject>
        <mxCell id="vik85Cttm_trtf5mC2Qc-27" style="edgeStyle=orthogonalEdgeStyle;rounded=1;orthogonalLoop=1;jettySize=auto;html=1;entryX=0.5;entryY=0;entryDx=0;entryDy=0;entryPerimeter=0;fontSize=12;startSize=8;endSize=8;" edge="1" parent="1" source="vik85Cttm_trtf5mC2Qc-3" target="vik85Cttm_trtf5mC2Qc-4">
          <mxGeometry relative="1" as="geometry" />
        </mxCell>
        <mxCell id="vik85Cttm_trtf5mC2Qc-29" style="edgeStyle=orthogonalEdgeStyle;rounded=1;orthogonalLoop=1;jettySize=auto;html=1;entryX=0.5;entryY=0;entryDx=0;entryDy=0;entryPerimeter=0;fontSize=12;startSize=8;endSize=8;" edge="1" parent="1" source="vik85Cttm_trtf5mC2Qc-3" target="vik85Cttm_trtf5mC2Qc-6">
          <mxGeometry relative="1" as="geometry" />
        </mxCell>
        <UserObject label="&lt;div style=&quot;font-size: 1px&quot;&gt;&lt;font style=&quot;font-size: 11.29px; direction: ltr; letter-spacing: 0px; line-height: 120%; opacity: 1;&quot;&gt;Switch &lt;i&gt;State&lt;/i&gt;&lt;/font&gt;&lt;/div&gt;" Function="EN_DIO_Error_T DIO_toggle(uint8_t pinNumber, EN_DIO_PORT_T portNumber);  " tags="Flowchart" id="vik85Cttm_trtf5mC2Qc-3">
          <mxCell style="verticalAlign=middle;align=center;overflow=width;vsdxID=274;fillColor=#d5e8d4;shape=stencil(nZBLDoAgDERP0z3SIyjew0SURgSD+Lu9kMZoXLhwN9O+tukAlrNpJg1SzDH4QW/URgNYgZTkjA4UkwJUgGXng+6DX1zLfmoymdXo17xh5zmRJ6Q42BWCfc2oJfdAr+Yv+AP9Cb7OJ3H/2JG1HNGz/84klThPVCc=);strokeColor=#82b366;spacingTop=-1;spacingBottom=-1;spacingLeft=-1;spacingRight=-1;points=[[0,0.5,0],[1,0.5,0],[0.5,1,0],[0.5,0,0]];labelBackgroundColor=none;rounded=1;html=1;whiteSpace=wrap;fontFamily=Calibri;" vertex="1" parent="1">
            <mxGeometry x="-2241.5" y="-902" width="134" height="33" as="geometry" />
          </mxCell>
        </UserObject>
        <mxCell id="vik85Cttm_trtf5mC2Qc-30" style="edgeStyle=none;curved=1;rounded=0;orthogonalLoop=1;jettySize=auto;html=1;entryX=0.5;entryY=0;entryDx=0;entryDy=0;entryPerimeter=0;fontSize=12;startSize=8;endSize=8;" edge="1" parent="1" source="vik85Cttm_trtf5mC2Qc-4" target="vik85Cttm_trtf5mC2Qc-8">
          <mxGeometry relative="1" as="geometry" />
        </mxCell>
        <UserObject label="" Function="EN_DIO_Error_T DIO_init(uint8_t pinNumber, EN_DIO_PORT_T portNumber, EN_DIO_DIRECTION_T direction);" tags="Flowchart" id="vik85Cttm_trtf5mC2Qc-4">
          <mxCell style="vsdxID=219;fillColor=#fff2cc;shape=stencil(UzV2Ls5ILEhVNTIoLinKz04tz0wpyVA1dlE1MsrMy0gtyiwBslSNXVWNndPyi1LTi/JL81Ig/IJEkEoQKze/DGRCBUSfAUiHkUElhGcK4bpBVOZk5iGpNEVVikeloQHZpsK0YlWLz1QgA+HFtMycHEgIIcujBwlQCBKcxq4A);strokeColor=#d6b656;spacingTop=-1;spacingBottom=-1;spacingLeft=-1;spacingRight=-1;points=[[0,0.5,0],[1,0.5,0],[0.5,0,0],[0.5,1,0]];labelBackgroundColor=none;rounded=1;html=1;whiteSpace=wrap;fontFamily=Calibri;" vertex="1" parent="1">
            <mxGeometry x="-2372" y="-856" width="101" height="76" as="geometry" />
          </mxCell>
        </UserObject>
        <mxCell id="vik85Cttm_trtf5mC2Qc-5" value="&lt;div style=&quot;font-size: 1px&quot;&gt;&lt;font style=&quot;font-size: 11.29px; direction: ltr; letter-spacing: 0px; line-height: 120%; opacity: 1;&quot;&gt;STATE_RUNNING&lt;br&gt;&lt;/font&gt;&lt;/div&gt;" style="text;vsdxID=219;fillColor=none;gradientColor=none;strokeColor=none;spacingTop=-1;spacingBottom=-1;spacingLeft=-1;spacingRight=-1;points=[[0,0.5,0],[1,0.5,0],[0.5,0,0],[0.5,1,0]];labelBackgroundColor=none;rounded=1;html=1;whiteSpace=wrap;verticalAlign=middle;align=center;overflow=width;;html=1;fontColor=#000000;fontFamily=Calibri;" vertex="1" parent="vik85Cttm_trtf5mC2Qc-4">
          <mxGeometry x="8.47" y="9.33" width="84.67" height="57.15" as="geometry" />
        </mxCell>
        <mxCell id="vik85Cttm_trtf5mC2Qc-31" style="edgeStyle=none;curved=1;rounded=0;orthogonalLoop=1;jettySize=auto;html=1;entryX=0.5;entryY=0;entryDx=0;entryDy=0;entryPerimeter=0;fontSize=12;startSize=8;endSize=8;" edge="1" parent="1" source="vik85Cttm_trtf5mC2Qc-6" target="vik85Cttm_trtf5mC2Qc-15">
          <mxGeometry relative="1" as="geometry" />
        </mxCell>
        <UserObject label="" Function="EN_DIO_Error_T DIO_init(uint8_t pinNumber, EN_DIO_PORT_T portNumber, EN_DIO_DIRECTION_T direction);" tags="Flowchart" id="vik85Cttm_trtf5mC2Qc-6">
          <mxCell style="vsdxID=219;fillColor=#fff2cc;shape=stencil(UzV2Ls5ILEhVNTIoLinKz04tz0wpyVA1dlE1MsrMy0gtyiwBslSNXVWNndPyi1LTi/JL81Ig/IJEkEoQKze/DGRCBUSfAUiHkUElhGcK4bpBVOZk5iGpNEVVikeloQHZpsK0YlWLz1QgA+HFtMycHEgIIcujBwlQCBKcxq4A);strokeColor=#d6b656;spacingTop=-1;spacingBottom=-1;spacingLeft=-1;spacingRight=-1;points=[[0,0.5,0],[1,0.5,0],[0.5,0,0],[0.5,1,0]];labelBackgroundColor=none;rounded=1;html=1;whiteSpace=wrap;fontFamily=Calibri;" vertex="1" parent="1">
            <mxGeometry x="-2090" y="-856" width="101" height="76" as="geometry" />
          </mxCell>
        </UserObject>
        <mxCell id="vik85Cttm_trtf5mC2Qc-7" value="&lt;div style=&quot;font-size: 1px&quot;&gt;&lt;font style=&quot;font-size: 11.29px; direction: ltr; letter-spacing: 0px; line-height: 120%; opacity: 1;&quot;&gt;STATE_ADJUST&lt;br&gt;&lt;/font&gt;&lt;/div&gt;" style="text;vsdxID=219;fillColor=none;gradientColor=none;strokeColor=none;spacingTop=-1;spacingBottom=-1;spacingLeft=-1;spacingRight=-1;points=[[0,0.5,0],[1,0.5,0],[0.5,0,0],[0.5,1,0]];labelBackgroundColor=none;rounded=1;html=1;whiteSpace=wrap;verticalAlign=middle;align=center;overflow=width;;html=1;fontColor=#000000;fontFamily=Calibri;" vertex="1" parent="vik85Cttm_trtf5mC2Qc-6">
          <mxGeometry x="8.47" y="9.33" width="84.67" height="57.15" as="geometry" />
        </mxCell>
        <mxCell id="vik85Cttm_trtf5mC2Qc-32" style="edgeStyle=none;curved=1;rounded=0;orthogonalLoop=1;jettySize=auto;html=1;fontSize=12;startSize=8;endSize=8;" edge="1" parent="1" source="vik85Cttm_trtf5mC2Qc-8" target="vik85Cttm_trtf5mC2Qc-9">
          <mxGeometry relative="1" as="geometry" />
        </mxCell>
        <UserObject label="&lt;div style=&quot;&quot;&gt;&lt;span style=&quot;font-size: 11.29px;&quot;&gt;Disable &lt;i&gt;KPD&lt;/i&gt;&lt;/span&gt;&lt;/div&gt;" Function="EN_DIO_Error_T DIO_toggle(uint8_t pinNumber, EN_DIO_PORT_T portNumber);  " tags="Flowchart" id="vik85Cttm_trtf5mC2Qc-8">
          <mxCell style="verticalAlign=middle;align=center;overflow=width;vsdxID=274;fillColor=#d5e8d4;shape=stencil(nZBLDoAgDERP0z3SIyjew0SURgSD+Lu9kMZoXLhwN9O+tukAlrNpJg1SzDH4QW/URgNYgZTkjA4UkwJUgGXng+6DX1zLfmoymdXo17xh5zmRJ6Q42BWCfc2oJfdAr+Yv+AP9Cb7OJ3H/2JG1HNGz/84klThPVCc=);strokeColor=#82b366;spacingTop=-1;spacingBottom=-1;spacingLeft=-1;spacingRight=-1;points=[[0,0.5,0],[1,0.5,0],[0.5,1,0],[0.5,0,0]];labelBackgroundColor=none;rounded=1;html=1;whiteSpace=wrap;fontFamily=Calibri;" vertex="1" parent="1">
            <mxGeometry x="-2376.5" y="-750" width="110" height="33" as="geometry" />
          </mxCell>
        </UserObject>
        <mxCell id="vik85Cttm_trtf5mC2Qc-34" style="edgeStyle=none;curved=1;rounded=0;orthogonalLoop=1;jettySize=auto;html=1;fontSize=12;startSize=8;endSize=8;" edge="1" parent="1" source="vik85Cttm_trtf5mC2Qc-9" target="vik85Cttm_trtf5mC2Qc-10">
          <mxGeometry relative="1" as="geometry" />
        </mxCell>
        <UserObject label="&lt;div style=&quot;&quot;&gt;&lt;span style=&quot;font-size: 11.29px;&quot;&gt;Turn Off &lt;i&gt;BUZZER&lt;/i&gt;&lt;/span&gt;&lt;/div&gt;" Function="EN_DIO_Error_T DIO_toggle(uint8_t pinNumber, EN_DIO_PORT_T portNumber);  " tags="Flowchart" id="vik85Cttm_trtf5mC2Qc-9">
          <mxCell style="verticalAlign=middle;align=center;overflow=width;vsdxID=274;fillColor=#d5e8d4;shape=stencil(nZBLDoAgDERP0z3SIyjew0SURgSD+Lu9kMZoXLhwN9O+tukAlrNpJg1SzDH4QW/URgNYgZTkjA4UkwJUgGXng+6DX1zLfmoymdXo17xh5zmRJ6Q42BWCfc2oJfdAr+Yv+AP9Cb7OJ3H/2JG1HNGz/84klThPVCc=);strokeColor=#82b366;spacingTop=-1;spacingBottom=-1;spacingLeft=-1;spacingRight=-1;points=[[0,0.5,0],[1,0.5,0],[0.5,1,0],[0.5,0,0]];labelBackgroundColor=none;rounded=1;html=1;whiteSpace=wrap;fontFamily=Calibri;" vertex="1" parent="1">
            <mxGeometry x="-2376.5" y="-680" width="110" height="33" as="geometry" />
          </mxCell>
        </UserObject>
        <mxCell id="vik85Cttm_trtf5mC2Qc-37" style="edgeStyle=none;curved=1;rounded=0;orthogonalLoop=1;jettySize=auto;html=1;entryX=0.5;entryY=0;entryDx=0;entryDy=0;entryPerimeter=0;fontSize=12;startSize=8;endSize=8;" edge="1" parent="1" source="vik85Cttm_trtf5mC2Qc-10" target="vik85Cttm_trtf5mC2Qc-12">
          <mxGeometry relative="1" as="geometry" />
        </mxCell>
        <UserObject label="&lt;div style=&quot;font-size: 1px&quot;&gt;&lt;font style=&quot;font-size: 11.29px; direction: ltr; letter-spacing: 0px; line-height: 120%; opacity: 1;&quot;&gt;Clear &lt;i&gt;LCD&lt;/i&gt;&lt;br&gt;&lt;/font&gt;&lt;/div&gt;" Function="EN_DIO_Error_T DIO_toggle(uint8_t pinNumber, EN_DIO_PORT_T portNumber);  " tags="Flowchart" id="vik85Cttm_trtf5mC2Qc-10">
          <mxCell style="verticalAlign=middle;align=center;overflow=width;vsdxID=274;fillColor=#d5e8d4;shape=stencil(nZBLDoAgDERP0z3SIyjew0SURgSD+Lu9kMZoXLhwN9O+tukAlrNpJg1SzDH4QW/URgNYgZTkjA4UkwJUgGXng+6DX1zLfmoymdXo17xh5zmRJ6Q42BWCfc2oJfdAr+Yv+AP9Cb7OJ3H/2JG1HNGz/84klThPVCc=);strokeColor=#82b366;spacingTop=-1;spacingBottom=-1;spacingLeft=-1;spacingRight=-1;points=[[0,0.5,0],[1,0.5,0],[0.5,1,0],[0.5,0,0]];labelBackgroundColor=none;rounded=1;html=1;whiteSpace=wrap;fontFamily=Calibri;" vertex="1" parent="1">
            <mxGeometry x="-2376.5" y="-610" width="110" height="33" as="geometry" />
          </mxCell>
        </UserObject>
        <UserObject label="" Function="EN_DIO_Error_T DIO_init(uint8_t pinNumber, EN_DIO_PORT_T portNumber, EN_DIO_DIRECTION_T direction);" tags="Flowchart" id="vik85Cttm_trtf5mC2Qc-11">
          <mxCell style="vsdxID=280;fillColor=#e1d5e7;shape=stencil(UzV2Ls5ILEhVNTIoLinKz04tz0wpyVA1dlE1MsrMy0gtyiwBslSNXVWNndPyi1LTi/JL81Ig/IJEkEoQKze/DGRCBUSfrqGJnoEZSJuRQSVEyNDAAMx3g6jPycxDUm9hqmdpQrxyQ0zj8akmRTFhlwMZCG+nZebkQEINWR49mIBCkCA2dgUA);strokeColor=#9673a6;spacingTop=-1;spacingBottom=-1;spacingLeft=-1;spacingRight=-1;points=[[0,0.5,0],[1,0.5,0],[0.5,1,0],[0.5,0,0]];labelBackgroundColor=none;rounded=1;html=1;whiteSpace=wrap;fontFamily=Calibri;" vertex="1" parent="1">
            <mxGeometry x="-2395.7" y="-533" width="149" height="46" as="geometry" />
          </mxCell>
        </UserObject>
        <mxCell id="vik85Cttm_trtf5mC2Qc-12" value="&lt;div style=&quot;font-size: 1px&quot;&gt;&lt;font style=&quot;font-size: 11.29px; direction: ltr; letter-spacing: 0px; line-height: 120%; opacity: 1;&quot;&gt;Display new &lt;i&gt;CurrentTemperature &lt;/i&gt;on &lt;i&gt;LCD&lt;/i&gt;&lt;/font&gt;&lt;/div&gt;" style="text;vsdxID=280;fillColor=none;gradientColor=none;strokeColor=none;spacingTop=-1;spacingBottom=-1;spacingLeft=-1;spacingRight=-1;points=[[0,0.5,0],[1,0.5,0],[0.5,1,0],[0.5,0,0]];labelBackgroundColor=none;rounded=1;html=1;whiteSpace=wrap;verticalAlign=middle;align=center;overflow=width;;html=1;fontColor=#000000;fontFamily=Calibri;" vertex="1" parent="vik85Cttm_trtf5mC2Qc-11">
          <mxGeometry x="24.975940594059406" y="-0.12105263157894736" width="99.91851485148516" height="46.12105263157894" as="geometry" />
        </mxCell>
        <mxCell id="vik85Cttm_trtf5mC2Qc-44" style="edgeStyle=none;curved=1;rounded=0;orthogonalLoop=1;jettySize=auto;html=1;fontSize=12;startSize=8;endSize=8;" edge="1" parent="1" source="vik85Cttm_trtf5mC2Qc-13" target="vik85Cttm_trtf5mC2Qc-14">
          <mxGeometry relative="1" as="geometry" />
        </mxCell>
        <UserObject label="&lt;div style=&quot;font-size: 1px&quot;&gt;&lt;font style=&quot;font-size: 11.29px; direction: ltr; letter-spacing: 0px; line-height: 120%; opacity: 1;&quot;&gt;Update &lt;i&gt;CurrentAppState &lt;/i&gt;= State (passed)&lt;/font&gt;&lt;/div&gt;" Function="EN_DIO_Error_T DIO_toggle(uint8_t pinNumber, EN_DIO_PORT_T portNumber);  " tags="Flowchart" id="vik85Cttm_trtf5mC2Qc-13">
          <mxCell style="verticalAlign=middle;align=center;overflow=width;vsdxID=274;fillColor=#d5e8d4;shape=stencil(nZBLDoAgDERP0z3SIyjew0SURgSD+Lu9kMZoXLhwN9O+tukAlrNpJg1SzDH4QW/URgNYgZTkjA4UkwJUgGXng+6DX1zLfmoymdXo17xh5zmRJ6Q42BWCfc2oJfdAr+Yv+AP9Cb7OJ3H/2JG1HNGz/84klThPVCc=);strokeColor=#82b366;spacingTop=-1;spacingBottom=-1;spacingLeft=-1;spacingRight=-1;points=[[0,0.5,0],[1,0.5,0],[0.5,1,0],[0.5,0,0]];labelBackgroundColor=none;rounded=1;html=1;whiteSpace=wrap;fontFamily=Calibri;" vertex="1" parent="1">
            <mxGeometry x="-2241.5" y="-96" width="134" height="46" as="geometry" />
          </mxCell>
        </UserObject>
        <UserObject label="&lt;div style=&quot;font-size: 1px&quot;&gt;&lt;font style=&quot;font-size: 11.29px; direction: ltr; letter-spacing: 0px; line-height: 120%; opacity: 1;&quot;&gt;Return&lt;br&gt;&lt;/font&gt;&lt;/div&gt;" Function="EN_DIO_Error_T DIO_init(uint8_t pinNumber, EN_DIO_PORT_T portNumber, EN_DIO_DIRECTION_T direction);" tags="Flowchart" id="vik85Cttm_trtf5mC2Qc-14">
          <mxCell style="verticalAlign=middle;align=center;overflow=width;vsdxID=52;fillColor=#d5e8d4;shape=stencil(tVLREoIgEPwaHnEQxsl3s/9gEpSJwDko7e+DsEkze2l627vdu5uFRaxyHe8FosR5sCcxqMZ3iO0Rpcp0ApQPCLEasUpaEC3Yi2lS3fOojOhsr3HDmObyMtsVcYqS29Qh5FEfklwrM5OXeUa/yjkcAwfr7TDpiyTfXvjkMR+Vw2A998qaBac5tAKHU1hq3i4oNwjRr9ofvayt/+Rk+yX/4iWA159KpXWKxJx/z0Bopfyw+g4=);strokeColor=#82b366;spacingTop=-1;spacingBottom=-1;spacingLeft=-1;spacingRight=-1;points=[[0.5,1,0],[0.5,0,0],[0,0.5,0],[1,0.5,0]];labelBackgroundColor=none;rounded=1;html=1;whiteSpace=wrap;fontFamily=Calibri;" vertex="1" parent="1">
            <mxGeometry x="-2225" y="-10" width="101" height="38" as="geometry" />
          </mxCell>
        </UserObject>
        <mxCell id="vik85Cttm_trtf5mC2Qc-33" style="edgeStyle=none;curved=1;rounded=0;orthogonalLoop=1;jettySize=auto;html=1;fontSize=12;startSize=8;endSize=8;" edge="1" parent="1" source="vik85Cttm_trtf5mC2Qc-15" target="vik85Cttm_trtf5mC2Qc-16">
          <mxGeometry relative="1" as="geometry" />
        </mxCell>
        <UserObject label="&lt;div style=&quot;&quot;&gt;&lt;span style=&quot;font-size: 11.29px;&quot;&gt;Disable &lt;i&gt;KPD&lt;/i&gt;&lt;/span&gt;&lt;/div&gt;" Function="EN_DIO_Error_T DIO_toggle(uint8_t pinNumber, EN_DIO_PORT_T portNumber);  " tags="Flowchart" id="vik85Cttm_trtf5mC2Qc-15">
          <mxCell style="verticalAlign=middle;align=center;overflow=width;vsdxID=274;fillColor=#d5e8d4;shape=stencil(nZBLDoAgDERP0z3SIyjew0SURgSD+Lu9kMZoXLhwN9O+tukAlrNpJg1SzDH4QW/URgNYgZTkjA4UkwJUgGXng+6DX1zLfmoymdXo17xh5zmRJ6Q42BWCfc2oJfdAr+Yv+AP9Cb7OJ3H/2JG1HNGz/84klThPVCc=);strokeColor=#82b366;spacingTop=-1;spacingBottom=-1;spacingLeft=-1;spacingRight=-1;points=[[0,0.5,0],[1,0.5,0],[0.5,1,0],[0.5,0,0]];labelBackgroundColor=none;rounded=1;html=1;whiteSpace=wrap;fontFamily=Calibri;" vertex="1" parent="1">
            <mxGeometry x="-2094.5" y="-749" width="110" height="33" as="geometry" />
          </mxCell>
        </UserObject>
        <mxCell id="vik85Cttm_trtf5mC2Qc-35" style="edgeStyle=none;curved=1;rounded=0;orthogonalLoop=1;jettySize=auto;html=1;fontSize=12;startSize=8;endSize=8;" edge="1" parent="1" source="vik85Cttm_trtf5mC2Qc-16" target="vik85Cttm_trtf5mC2Qc-17">
          <mxGeometry relative="1" as="geometry" />
        </mxCell>
        <UserObject label="&lt;div style=&quot;&quot;&gt;&lt;span style=&quot;font-size: 11.29px;&quot;&gt;Turn Off &lt;i&gt;BUZZER&lt;/i&gt;&lt;/span&gt;&lt;/div&gt;" Function="EN_DIO_Error_T DIO_toggle(uint8_t pinNumber, EN_DIO_PORT_T portNumber);  " tags="Flowchart" id="vik85Cttm_trtf5mC2Qc-16">
          <mxCell style="verticalAlign=middle;align=center;overflow=width;vsdxID=274;fillColor=#d5e8d4;shape=stencil(nZBLDoAgDERP0z3SIyjew0SURgSD+Lu9kMZoXLhwN9O+tukAlrNpJg1SzDH4QW/URgNYgZTkjA4UkwJUgGXng+6DX1zLfmoymdXo17xh5zmRJ6Q42BWCfc2oJfdAr+Yv+AP9Cb7OJ3H/2JG1HNGz/84klThPVCc=);strokeColor=#82b366;spacingTop=-1;spacingBottom=-1;spacingLeft=-1;spacingRight=-1;points=[[0,0.5,0],[1,0.5,0],[0.5,1,0],[0.5,0,0]];labelBackgroundColor=none;rounded=1;html=1;whiteSpace=wrap;fontFamily=Calibri;" vertex="1" parent="1">
            <mxGeometry x="-2094.5" y="-679" width="110" height="33" as="geometry" />
          </mxCell>
        </UserObject>
        <mxCell id="vik85Cttm_trtf5mC2Qc-36" style="edgeStyle=none;curved=1;rounded=0;orthogonalLoop=1;jettySize=auto;html=1;fontSize=12;startSize=8;endSize=8;" edge="1" parent="1" source="vik85Cttm_trtf5mC2Qc-17" target="vik85Cttm_trtf5mC2Qc-19">
          <mxGeometry relative="1" as="geometry" />
        </mxCell>
        <UserObject label="&lt;div style=&quot;font-size: 1px&quot;&gt;&lt;font style=&quot;font-size: 11.29px; direction: ltr; letter-spacing: 0px; line-height: 120%; opacity: 1;&quot;&gt;Clear &lt;i&gt;LCD&lt;/i&gt;&lt;br&gt;&lt;/font&gt;&lt;/div&gt;" Function="EN_DIO_Error_T DIO_toggle(uint8_t pinNumber, EN_DIO_PORT_T portNumber);  " tags="Flowchart" id="vik85Cttm_trtf5mC2Qc-17">
          <mxCell style="verticalAlign=middle;align=center;overflow=width;vsdxID=274;fillColor=#d5e8d4;shape=stencil(nZBLDoAgDERP0z3SIyjew0SURgSD+Lu9kMZoXLhwN9O+tukAlrNpJg1SzDH4QW/URgNYgZTkjA4UkwJUgGXng+6DX1zLfmoymdXo17xh5zmRJ6Q42BWCfc2oJfdAr+Yv+AP9Cb7OJ3H/2JG1HNGz/84klThPVCc=);strokeColor=#82b366;spacingTop=-1;spacingBottom=-1;spacingLeft=-1;spacingRight=-1;points=[[0,0.5,0],[1,0.5,0],[0.5,1,0],[0.5,0,0]];labelBackgroundColor=none;rounded=1;html=1;whiteSpace=wrap;fontFamily=Calibri;" vertex="1" parent="1">
            <mxGeometry x="-2094.5" y="-609" width="110" height="33" as="geometry" />
          </mxCell>
        </UserObject>
        <UserObject label="" Function="EN_DIO_Error_T DIO_init(uint8_t pinNumber, EN_DIO_PORT_T portNumber, EN_DIO_DIRECTION_T direction);" tags="Flowchart" id="vik85Cttm_trtf5mC2Qc-18">
          <mxCell style="vsdxID=280;fillColor=#e1d5e7;shape=stencil(UzV2Ls5ILEhVNTIoLinKz04tz0wpyVA1dlE1MsrMy0gtyiwBslSNXVWNndPyi1LTi/JL81Ig/IJEkEoQKze/DGRCBUSfrqGJnoEZSJuRQSVEyNDAAMx3g6jPycxDUm9hqmdpQrxyQ0zj8akmRTFhlwMZCG+nZebkQEINWR49mIBCkCA2dgUA);strokeColor=#9673a6;spacingTop=-1;spacingBottom=-1;spacingLeft=-1;spacingRight=-1;points=[[0,0.5,0],[1,0.5,0],[0.5,1,0],[0.5,0,0]];labelBackgroundColor=none;rounded=1;html=1;whiteSpace=wrap;fontFamily=Calibri;" vertex="1" parent="1">
            <mxGeometry x="-2114" y="-533" width="149" height="46" as="geometry" />
          </mxCell>
        </UserObject>
        <mxCell id="vik85Cttm_trtf5mC2Qc-19" value="&lt;div style=&quot;font-size: 1px&quot;&gt;&lt;font style=&quot;font-size: 11.29px; direction: ltr; letter-spacing: 0px; line-height: 120%; opacity: 1;&quot;&gt;Display &quot;Please choose the req tmp&quot; on &lt;i&gt;LCD&lt;/i&gt;&lt;/font&gt;&lt;/div&gt;" style="text;vsdxID=280;fillColor=none;gradientColor=none;strokeColor=none;spacingTop=-1;spacingBottom=-1;spacingLeft=-1;spacingRight=-1;points=[[0,0.5,0],[1,0.5,0],[0.5,1,0],[0.5,0,0]];labelBackgroundColor=none;rounded=1;html=1;whiteSpace=wrap;verticalAlign=middle;align=center;overflow=width;;html=1;fontColor=#000000;fontFamily=Calibri;" vertex="1" parent="vik85Cttm_trtf5mC2Qc-18">
          <mxGeometry x="24.975940594059406" y="-0.12105263157894736" width="99.91851485148516" height="46.12105263157894" as="geometry" />
        </mxCell>
        <UserObject label="" Function="EN_DIO_Error_T DIO_init(uint8_t pinNumber, EN_DIO_PORT_T portNumber, EN_DIO_DIRECTION_T direction);" tags="Flowchart" id="vik85Cttm_trtf5mC2Qc-20">
          <mxCell style="vsdxID=280;fillColor=#e1d5e7;shape=stencil(UzV2Ls5ILEhVNTIoLinKz04tz0wpyVA1dlE1MsrMy0gtyiwBslSNXVWNndPyi1LTi/JL81Ig/IJEkEoQKze/DGRCBUSfrqGJnoEZSJuRQSVEyNDAAMx3g6jPycxDUm9hqmdpQrxyQ0zj8akmRTFhlwMZCG+nZebkQEINWR49mIBCkCA2dgUA);strokeColor=#9673a6;spacingTop=-1;spacingBottom=-1;spacingLeft=-1;spacingRight=-1;points=[[0,0.5,0],[1,0.5,0],[0.5,1,0],[0.5,0,0]];labelBackgroundColor=none;rounded=1;html=1;whiteSpace=wrap;fontFamily=Calibri;" vertex="1" parent="1">
            <mxGeometry x="-2114" y="-390" width="149" height="46" as="geometry" />
          </mxCell>
        </UserObject>
        <mxCell id="vik85Cttm_trtf5mC2Qc-21" value="&lt;div style=&quot;font-size: 1px&quot;&gt;&lt;font style=&quot;font-size: 11.29px; direction: ltr; letter-spacing: 0px; line-height: 120%; opacity: 1;&quot;&gt;Display &quot;Controls 1(+) 2(-) 3(set)&quot; on &lt;i&gt;LCD&lt;/i&gt;&lt;/font&gt;&lt;/div&gt;" style="text;vsdxID=280;fillColor=none;gradientColor=none;strokeColor=none;spacingTop=-1;spacingBottom=-1;spacingLeft=-1;spacingRight=-1;points=[[0,0.5,0],[1,0.5,0],[0.5,1,0],[0.5,0,0]];labelBackgroundColor=none;rounded=1;html=1;whiteSpace=wrap;verticalAlign=middle;align=center;overflow=width;;html=1;fontColor=#000000;fontFamily=Calibri;" vertex="1" parent="vik85Cttm_trtf5mC2Qc-20">
          <mxGeometry x="24.975940594059406" y="-0.12105263157894736" width="99.91851485148516" height="46.12105263157894" as="geometry" />
        </mxCell>
        <mxCell id="vik85Cttm_trtf5mC2Qc-39" style="edgeStyle=none;curved=1;rounded=0;orthogonalLoop=1;jettySize=auto;html=1;fontSize=12;startSize=8;endSize=8;" edge="1" parent="1" source="vik85Cttm_trtf5mC2Qc-22" target="vik85Cttm_trtf5mC2Qc-21">
          <mxGeometry relative="1" as="geometry" />
        </mxCell>
        <UserObject label="&lt;div style=&quot;font-size: 1px&quot;&gt;&lt;font style=&quot;font-size: 11.29px; direction: ltr; letter-spacing: 0px; line-height: 120%; opacity: 1;&quot;&gt;Delay 0.5 sec.&lt;/font&gt;&lt;/div&gt;" Function="EN_DIO_Error_T DIO_toggle(uint8_t pinNumber, EN_DIO_PORT_T portNumber);  " tags="Flowchart" id="vik85Cttm_trtf5mC2Qc-22">
          <mxCell style="verticalAlign=middle;align=center;overflow=width;vsdxID=274;fillColor=#d5e8d4;shape=stencil(nZBLDoAgDERP0z3SIyjew0SURgSD+Lu9kMZoXLhwN9O+tukAlrNpJg1SzDH4QW/URgNYgZTkjA4UkwJUgGXng+6DX1zLfmoymdXo17xh5zmRJ6Q42BWCfc2oJfdAr+Yv+AP9Cb7OJ3H/2JG1HNGz/84klThPVCc=);strokeColor=#82b366;spacingTop=-1;spacingBottom=-1;spacingLeft=-1;spacingRight=-1;points=[[0,0.5,0],[1,0.5,0],[0.5,1,0],[0.5,0,0]];labelBackgroundColor=none;rounded=1;html=1;whiteSpace=wrap;fontFamily=Calibri;" vertex="1" parent="1">
            <mxGeometry x="-2094.5" y="-455" width="110" height="33" as="geometry" />
          </mxCell>
        </UserObject>
        <mxCell id="vik85Cttm_trtf5mC2Qc-41" style="edgeStyle=none;curved=1;rounded=0;orthogonalLoop=1;jettySize=auto;html=1;fontSize=12;startSize=8;endSize=8;" edge="1" parent="1" source="vik85Cttm_trtf5mC2Qc-23" target="vik85Cttm_trtf5mC2Qc-25">
          <mxGeometry relative="1" as="geometry" />
        </mxCell>
        <UserObject label="&lt;div style=&quot;font-size: 1px&quot;&gt;&lt;font style=&quot;font-size: 11.29px; direction: ltr; letter-spacing: 0px; line-height: 120%; opacity: 1;&quot;&gt;Delay 2 sec.&lt;/font&gt;&lt;/div&gt;" Function="EN_DIO_Error_T DIO_toggle(uint8_t pinNumber, EN_DIO_PORT_T portNumber);  " tags="Flowchart" id="vik85Cttm_trtf5mC2Qc-23">
          <mxCell style="verticalAlign=middle;align=center;overflow=width;vsdxID=274;fillColor=#d5e8d4;shape=stencil(nZBLDoAgDERP0z3SIyjew0SURgSD+Lu9kMZoXLhwN9O+tukAlrNpJg1SzDH4QW/URgNYgZTkjA4UkwJUgGXng+6DX1zLfmoymdXo17xh5zmRJ6Q42BWCfc2oJfdAr+Yv+AP9Cb7OJ3H/2JG1HNGz/84klThPVCc=);strokeColor=#82b366;spacingTop=-1;spacingBottom=-1;spacingLeft=-1;spacingRight=-1;points=[[0,0.5,0],[1,0.5,0],[0.5,1,0],[0.5,0,0]];labelBackgroundColor=none;rounded=1;html=1;whiteSpace=wrap;fontFamily=Calibri;" vertex="1" parent="1">
            <mxGeometry x="-2094.5" y="-311" width="110" height="33" as="geometry" />
          </mxCell>
        </UserObject>
        <UserObject label="" Function="EN_DIO_Error_T DIO_init(uint8_t pinNumber, EN_DIO_PORT_T portNumber, EN_DIO_DIRECTION_T direction);" tags="Flowchart" id="vik85Cttm_trtf5mC2Qc-24">
          <mxCell style="vsdxID=280;fillColor=#e1d5e7;shape=stencil(UzV2Ls5ILEhVNTIoLinKz04tz0wpyVA1dlE1MsrMy0gtyiwBslSNXVWNndPyi1LTi/JL81Ig/IJEkEoQKze/DGRCBUSfrqGJnoEZSJuRQSVEyNDAAMx3g6jPycxDUm9hqmdpQrxyQ0zj8akmRTFhlwMZCG+nZebkQEINWR49mIBCkCA2dgUA);strokeColor=#9673a6;spacingTop=-1;spacingBottom=-1;spacingLeft=-1;spacingRight=-1;points=[[0,0.5,0],[1,0.5,0],[0.5,1,0],[0.5,0,0]];labelBackgroundColor=none;rounded=1;html=1;whiteSpace=wrap;fontFamily=Calibri;" vertex="1" parent="1">
            <mxGeometry x="-2126.5" y="-239" width="174" height="46" as="geometry" />
          </mxCell>
        </UserObject>
        <mxCell id="vik85Cttm_trtf5mC2Qc-25" value="&lt;div style=&quot;font-size: 1px&quot;&gt;&lt;font style=&quot;font-size: 11.29px; direction: ltr; letter-spacing: 0px; line-height: 120%; opacity: 1;&quot;&gt;Display &quot;Min:18&amp;nbsp;&lt;/font&gt;&lt;/div&gt;&lt;div style=&quot;font-size: 1px&quot;&gt;&lt;font style=&quot;font-size: 11.29px; direction: ltr; letter-spacing: 0px; line-height: 120%; opacity: 1;&quot;&gt;&lt;i style=&quot;border-color: var(--border-color);&quot;&gt;DesiredTemperature&amp;nbsp;&lt;/i&gt;&lt;/font&gt;&lt;/div&gt;&lt;div style=&quot;font-size: 1px&quot;&gt;&lt;font style=&quot;font-size: 11.29px; direction: ltr; letter-spacing: 0px; line-height: 120%; opacity: 1;&quot;&gt;Max:35&quot; &lt;i&gt;&amp;nbsp;&lt;/i&gt;on &lt;i&gt;LCD&lt;/i&gt;&lt;/font&gt;&lt;/div&gt;" style="text;vsdxID=280;fillColor=none;gradientColor=none;strokeColor=none;spacingTop=-1;spacingBottom=-1;spacingLeft=-1;spacingRight=-1;points=[[0,0.5,0],[1,0.5,0],[0.5,1,0],[0.5,0,0]];labelBackgroundColor=none;rounded=1;html=1;whiteSpace=wrap;verticalAlign=middle;align=center;overflow=width;;html=1;fontColor=#000000;fontFamily=Calibri;" vertex="1" parent="vik85Cttm_trtf5mC2Qc-24">
          <mxGeometry x="28.65653465346535" y="-0.12105263157894797" width="116.68336633663368" height="46.12105263157894" as="geometry" />
        </mxCell>
        <mxCell id="vik85Cttm_trtf5mC2Qc-43" style="edgeStyle=orthogonalEdgeStyle;rounded=1;orthogonalLoop=1;jettySize=auto;html=1;entryX=1;entryY=0.5;entryDx=0;entryDy=0;entryPerimeter=0;fontSize=12;startSize=8;endSize=8;exitX=0.5;exitY=1;exitDx=0;exitDy=0;exitPerimeter=0;" edge="1" parent="1" source="vik85Cttm_trtf5mC2Qc-26" target="vik85Cttm_trtf5mC2Qc-13">
          <mxGeometry relative="1" as="geometry" />
        </mxCell>
        <UserObject label="&lt;div style=&quot;font-size: 1px&quot;&gt;&lt;font style=&quot;font-size: 11.29px; direction: ltr; letter-spacing: 0px; line-height: 120%; opacity: 1;&quot;&gt;Delay 10 sec.&lt;/font&gt;&lt;/div&gt;" Function="EN_DIO_Error_T DIO_toggle(uint8_t pinNumber, EN_DIO_PORT_T portNumber);  " tags="Flowchart" id="vik85Cttm_trtf5mC2Qc-26">
          <mxCell style="verticalAlign=middle;align=center;overflow=width;vsdxID=274;fillColor=#d5e8d4;shape=stencil(nZBLDoAgDERP0z3SIyjew0SURgSD+Lu9kMZoXLhwN9O+tukAlrNpJg1SzDH4QW/URgNYgZTkjA4UkwJUgGXng+6DX1zLfmoymdXo17xh5zmRJ6Q42BWCfc2oJfdAr+Yv+AP9Cb7OJ3H/2JG1HNGz/84klThPVCc=);strokeColor=#82b366;spacingTop=-1;spacingBottom=-1;spacingLeft=-1;spacingRight=-1;points=[[0,0.5,0],[1,0.5,0],[0.5,1,0],[0.5,0,0]];labelBackgroundColor=none;rounded=1;html=1;whiteSpace=wrap;fontFamily=Calibri;" vertex="1" parent="1">
            <mxGeometry x="-2094.5" y="-158" width="110" height="33" as="geometry" />
          </mxCell>
        </UserObject>
        <mxCell id="vik85Cttm_trtf5mC2Qc-38" style="edgeStyle=none;curved=1;rounded=0;orthogonalLoop=1;jettySize=auto;html=1;fontSize=12;startSize=8;endSize=8;" edge="1" parent="1" source="vik85Cttm_trtf5mC2Qc-19" target="vik85Cttm_trtf5mC2Qc-22">
          <mxGeometry relative="1" as="geometry" />
        </mxCell>
        <mxCell id="vik85Cttm_trtf5mC2Qc-40" style="edgeStyle=none;curved=1;rounded=0;orthogonalLoop=1;jettySize=auto;html=1;fontSize=12;startSize=8;endSize=8;" edge="1" parent="1" source="vik85Cttm_trtf5mC2Qc-21" target="vik85Cttm_trtf5mC2Qc-23">
          <mxGeometry relative="1" as="geometry" />
        </mxCell>
        <mxCell id="vik85Cttm_trtf5mC2Qc-42" style="edgeStyle=none;curved=1;rounded=0;orthogonalLoop=1;jettySize=auto;html=1;fontSize=12;startSize=8;endSize=8;" edge="1" parent="1" source="vik85Cttm_trtf5mC2Qc-25" target="vik85Cttm_trtf5mC2Qc-26">
          <mxGeometry relative="1" as="geometry" />
        </mxCell>
        <mxCell id="vik85Cttm_trtf5mC2Qc-45" style="edgeStyle=orthogonalEdgeStyle;rounded=1;orthogonalLoop=1;jettySize=auto;html=1;entryX=0;entryY=0.5;entryDx=0;entryDy=0;entryPerimeter=0;fontSize=12;startSize=8;endSize=8;exitX=0.5;exitY=1;exitDx=0;exitDy=0;exitPerimeter=0;" edge="1" parent="1" source="vik85Cttm_trtf5mC2Qc-12" target="vik85Cttm_trtf5mC2Qc-13">
          <mxGeometry relative="1" as="geometry" />
        </mxCell>
      </root>
    </mxGraphModel>
  </diagram>
</mxfile>
